<?xml version="1.0" encoding="UTF-8" standalone="no"?>
<!DOCTYPE svg PUBLIC "-//W3C//DTD SVG 1.1//EN" "http://www.w3.org/Graphics/SVG/1.1/DTD/svg11.dtd">
<svg width="100%" height="100%" viewBox="0 0 1542 958" version="1.1" xmlns="http://www.w3.org/2000/svg" xmlns:xlink="http://www.w3.org/1999/xlink" xml:space="preserve" xmlns:serif="http://www.serif.com/" style="fill-rule:evenodd;clip-rule:evenodd;stroke-linecap:round;stroke-linejoin:round;stroke-miterlimit:1.5;">
    <g transform="matrix(1,0,0,1,-461.352,-543.058)">
        <g id="Logo" transform="matrix(1.16534,0,0,1.16534,-293.178,-689.766)">
            <g id="Layer3">
                <g transform="matrix(0.770715,0.185124,-0.189349,0.788302,570.771,-126.253)">
                    <path d="M1761.05,1367.83C1626.57,1348.77 1698.48,1186.92 1700.49,1183.88C1718.2,1156.97 1728.02,1138.46 1786.01,1107.9C1823.79,1087.99 1857.22,1068.67 1905.32,1058.2C1968.91,1044.34 2046.11,1011.89 2067.42,1029.59C2081.2,1041.04 2004.39,1113.25 1996.07,1154.63C1964.9,1309.61 1837.27,1378.64 1761.05,1367.83Z" style="fill:rgb(109,158,77);"/>
                </g>
                <g transform="matrix(0.706835,0.16978,-0.173367,0.721767,672.929,-19.6035)">
                    <path d="M1694.09,1193.36C1713.7,1163.07 1721.46,1141.92 1786.01,1107.9C1823.79,1087.99 1857.22,1068.67 1905.32,1058.2C1968.91,1044.34 2046.11,1011.89 2067.42,1029.59C2081.2,1041.04 2004.39,1113.25 1996.07,1154.63C1964.9,1309.61 1837.27,1378.64 1761.05,1367.83C1626.57,1348.77 1688.13,1207.07 1694.09,1193.36Z" style="fill:rgb(133,187,116);"/>
                </g>
                <path d="M1708.88,1205.79C1827.49,1117.95 1942.99,1073.05 1947.48,1071.84" style="fill:rgb(109,158,77);"/>
            </g>
            <g transform="matrix(1.44193,0,0,1.41721,-422.013,-570.047)">
                <path d="M950.561,1167.1C950.004,1166.3 949.71,1165.89 949.71,1165.89C999.589,1158.74 1306.71,1127.02 1455.44,1233.61C1491.56,1259.49 1725.98,1522.95 992.405,1721.57L972.487,1726.48C1068.84,1710.18 1143.71,1591.51 1143.71,1447.74C1143.71,1293.23 1057.24,1167.72 950.561,1167.1Z" style="fill:rgb(148,107,153);stroke:rgb(122,85,127);stroke-width:4.36px;"/>
            </g>
            <g id="Layer2">
                <g transform="matrix(1,0,0,0.87932,150.044,145.382)">
                    <path d="M1218.28,1820.75C1224.47,1811.59 1277.91,1745.69 1291.99,1562.41C1316.29,1246.14 1157.97,1082.65 1126.93,1054.31" style="fill:none;stroke:rgb(132,95,137);stroke-width:7.58px;stroke-linecap:square;"/>
                </g>
                <g transform="matrix(1,0,0,0.87932,41.1608,144.039)">
                    <path d="M1195.37,1881.13C1201.57,1871.97 1283.54,1757.79 1291.99,1562.41C1305.48,1250.41 1157.97,1082.65 1126.93,1054.31" style="fill:none;stroke:rgb(132,95,137);stroke-width:7.58px;stroke-linecap:square;"/>
                </g>
            </g>
            <g id="Layer4">
                <g>
                    <path d="M1282.97,1075.06C1287.69,1074.63 1287.55,1076.38 1341.88,1081.38C1368.88,1083.87 1368.8,1081.89 1395.13,1087.9C1362.52,1107.56 1359.72,1100.52 1325.02,1117.01C1327.82,1116.74 1348.11,1119.93 1356.1,1119.25C1360.35,1118.89 1345.28,1135.71 1344.09,1136.94C1382.66,1128.11 1397.99,1120.05 1397.85,1123.3C1397.72,1126.31 1365.18,1155.37 1359.39,1162.49" style="fill:rgb(132,95,137);"/>
                    <path d="M1392.35,1126.19C1384.68,1128.44 1369.47,1133.8 1344.67,1139.47C1343.55,1139.73 1342.39,1139.22 1341.82,1138.22C1341.26,1137.21 1341.42,1135.96 1342.22,1135.13C1342.99,1134.33 1349.82,1126.75 1353,1121.93C1343.76,1121.81 1327.73,1119.36 1325.28,1119.6C1324.02,1119.72 1322.86,1118.92 1322.52,1117.7C1322.18,1116.49 1322.77,1115.2 1323.91,1114.66C1356.36,1099.24 1360.82,1104.49 1388.1,1089.01C1368.19,1084.79 1366.06,1086.22 1341.64,1083.97C1287.74,1079.01 1287.89,1077.22 1283.2,1077.65L1280.62,1077.89L1280.14,1072.71L1282.73,1072.48C1287.49,1072.04 1287.35,1073.76 1342.11,1078.8C1369.29,1081.3 1369.21,1079.32 1395.71,1085.36C1396.74,1085.6 1397.53,1086.44 1397.7,1087.49C1397.86,1088.53 1397.38,1089.58 1396.47,1090.12C1366.78,1108.03 1361.73,1103.88 1335.02,1115.33C1342.18,1116.12 1351.17,1117.06 1355.88,1116.66L1356.9,1116.71L1357.73,1116.98L1358.41,1117.45L1358.96,1118.1L1359.33,1118.94L1359.44,1120C1359.42,1120.49 1359.29,1121.11 1359,1121.83C1358.01,1124.22 1354.48,1128.76 1351.34,1132.55C1377.24,1126.2 1391.01,1120.67 1395.67,1120.05C1396.41,1119.95 1397.01,1119.95 1397.47,1120.01L1398.33,1120.22L1398.97,1120.53L1399.63,1121.09L1400.14,1121.85L1400.4,1122.67L1400.45,1123.41L1400.21,1124.5C1400.1,1124.78 1399.93,1125.12 1399.68,1125.51C1399.1,1126.43 1397.91,1127.85 1396.26,1129.62C1387.71,1138.8 1366.02,1158.45 1361.41,1164.13L1359.77,1166.15L1355.74,1162.87L1357.37,1160.86C1362,1155.16 1383.67,1135.48 1392.35,1126.19Z" style="fill:rgb(132,95,137);"/>
                    <g transform="matrix(1,0,0,1,122.256,307.735)">
                        <path d="M1317.25,1087.71C1343.6,1087.57 1359.21,1084.43 1395.13,1087.9C1362.52,1107.56 1359.72,1100.52 1325.02,1117.01C1327.82,1116.74 1355.75,1120.5 1363.5,1118.48C1366.11,1117.8 1345.28,1135.71 1344.09,1136.94C1382.66,1128.11 1385.12,1130.3 1384.54,1133.5C1383.43,1139.62 1322.93,1176.04 1321.54,1177.58" style="fill:rgb(132,95,137);"/>
                        <path d="M1323.34,1179.46L1321.73,1181.25L1317.87,1177.77L1319.61,1175.84C1319.84,1175.59 1321.35,1174.49 1323.87,1172.87C1332.6,1167.27 1354.63,1153.61 1369.21,1143.31C1373.79,1140.07 1377.63,1137.17 1380.03,1134.98C1380.59,1134.46 1381.16,1133.84 1381.55,1133.39C1380.91,1133.3 1380.1,1133.28 1379.07,1133.31C1373.78,1133.46 1363.68,1135.12 1344.67,1139.47C1343.55,1139.73 1342.39,1139.22 1341.82,1138.22C1341.26,1137.21 1341.42,1135.96 1342.22,1135.13C1342.97,1134.35 1351.57,1126.9 1357.18,1121.67C1357.18,1121.66 1357.19,1121.66 1357.2,1121.65C1354.23,1121.69 1350.79,1121.57 1347.25,1121.35C1337.45,1120.74 1326.92,1119.44 1325.28,1119.6C1324.02,1119.72 1322.86,1118.92 1322.52,1117.7C1322.18,1116.49 1322.77,1115.2 1323.91,1114.66C1355.8,1099.5 1360.66,1104.32 1386.72,1089.78C1356.54,1087.51 1341.44,1090.18 1317.26,1090.31L1314.67,1090.32L1314.64,1085.12L1317.24,1085.11C1343.67,1084.97 1359.34,1081.84 1395.38,1085.31C1396.5,1085.42 1397.42,1086.23 1397.66,1087.32C1397.91,1088.41 1397.43,1089.54 1396.47,1090.12C1366.89,1107.96 1361.77,1103.91 1335.33,1115.2C1339.07,1115.53 1343.39,1115.9 1347.57,1116.16C1353.89,1116.55 1359.9,1116.73 1362.84,1115.96L1363.52,1115.86L1364.3,1115.94L1364.87,1116.16L1365.48,1116.59L1366.05,1117.35L1366.32,1118.47L1366.22,1119.29L1365.84,1120.15C1365.34,1120.95 1363.36,1123.01 1360.72,1125.47C1358.48,1127.57 1355.74,1130.02 1353.24,1132.25C1370.14,1128.65 1378.22,1127.79 1381.95,1128.2C1384.38,1128.47 1385.6,1129.32 1386.27,1130.13L1386.8,1130.97L1387.1,1131.84C1387.25,1132.5 1387.24,1133.22 1387.1,1133.96C1386.98,1134.62 1386.58,1135.53 1385.74,1136.56C1384.56,1137.99 1382.31,1139.99 1379.29,1142.34C1366.36,1152.38 1338.76,1169.53 1327.66,1176.62C1325.53,1177.98 1323.68,1179.23 1323.34,1179.46Z" style="fill:rgb(132,95,137);"/>
                    </g>
                    <g transform="matrix(1,0,0,1,106.788,542.403)">
                        <path d="M1317.25,1087.71C1343.6,1087.57 1359.21,1084.43 1395.13,1087.9C1362.52,1107.56 1359.72,1100.52 1325.02,1117.01C1327.82,1116.74 1355.75,1120.5 1363.5,1118.48C1366.11,1117.8 1345.28,1135.71 1344.09,1136.94C1385.11,1127.91 1390.03,1127.37 1387.49,1130.9C1385.24,1134.03 1269.58,1200.11 1268.19,1201.65" style="fill:rgb(132,95,137);"/>
                        <path d="M1381.26,1131.96C1374.97,1132.92 1363.74,1135.27 1344.65,1139.48C1343.53,1139.72 1342.38,1139.21 1341.82,1138.21C1341.26,1137.21 1341.42,1135.96 1342.22,1135.13C1342.97,1134.35 1351.57,1126.9 1357.18,1121.67C1357.18,1121.66 1357.19,1121.66 1357.2,1121.65C1354.23,1121.69 1350.79,1121.57 1347.25,1121.35C1337.45,1120.74 1326.92,1119.44 1325.28,1119.6C1324.02,1119.72 1322.86,1118.92 1322.52,1117.7C1322.18,1116.49 1322.77,1115.2 1323.91,1114.66C1355.8,1099.5 1360.66,1104.32 1386.72,1089.78C1356.54,1087.51 1341.44,1090.18 1317.26,1090.31L1314.67,1090.32L1314.64,1085.12L1317.24,1085.11C1343.67,1084.97 1359.34,1081.84 1395.38,1085.31C1396.5,1085.42 1397.42,1086.23 1397.66,1087.32C1397.91,1088.41 1397.43,1089.54 1396.47,1090.12C1366.89,1107.96 1361.77,1103.91 1335.33,1115.2C1339.07,1115.53 1343.39,1115.9 1347.57,1116.16C1353.89,1116.55 1359.9,1116.73 1362.84,1115.96L1363.52,1115.86L1364.3,1115.94L1364.87,1116.16L1365.48,1116.59L1366.05,1117.35L1366.32,1118.47L1366.22,1119.29L1365.84,1120.15C1365.34,1120.95 1363.36,1123.01 1360.72,1125.47C1358.46,1127.58 1355.71,1130.05 1353.2,1132.29C1367.53,1129.17 1376.29,1127.41 1381.39,1126.69C1384.4,1126.26 1386.3,1126.21 1387.38,1126.37C1387.77,1126.43 1388.1,1126.52 1388.37,1126.62L1389.09,1126.96L1389.7,1127.45L1390.24,1128.15L1390.58,1129.1L1390.62,1129.99L1390.31,1131.2C1390.15,1131.57 1389.92,1131.98 1389.6,1132.42C1389.44,1132.64 1389,1133.11 1388.21,1133.67C1386.43,1134.97 1381.95,1137.77 1375.69,1141.54C1351.04,1156.4 1298.59,1186.6 1278.02,1198.71C1273.91,1201.14 1270.52,1203.23 1269.94,1203.59L1268.38,1205.32L1264.52,1201.84L1266.26,1199.91C1266.4,1199.75 1267.41,1199 1269.25,1197.88C1282.37,1189.93 1345.28,1153.8 1373.01,1137.09C1376.12,1135.21 1379.03,1133.39 1381.26,1131.96Z" style="fill:rgb(132,95,137);"/>
                    </g>
                    <g transform="matrix(0.926337,-0.376697,0.376697,0.926337,-260.091,660.626)">
                        <path d="M1312.36,1086.63C1338.71,1086.49 1359.21,1084.43 1395.13,1087.9C1362.52,1107.56 1359.72,1100.52 1325.02,1117.01C1327.82,1116.74 1355.75,1120.5 1363.5,1118.48C1366.11,1117.8 1345.28,1135.71 1344.09,1136.94C1382.66,1128.11 1387.57,1132.33 1384.54,1133.5C1371.63,1138.47 1321.71,1178.47 1320.32,1180.01" style="fill:rgb(132,95,137);"/>
                        <path d="M1377.76,1134.09C1377.48,1134.1 1377.19,1134.11 1376.9,1134.12C1370.76,1134.42 1360.64,1135.82 1344.67,1139.47C1343.55,1139.73 1342.39,1139.22 1341.82,1138.22C1341.26,1137.21 1341.42,1135.96 1342.22,1135.13C1342.97,1134.35 1351.57,1126.9 1357.18,1121.67C1357.18,1121.66 1357.19,1121.66 1357.2,1121.65C1354.23,1121.69 1350.79,1121.57 1347.25,1121.35C1337.45,1120.74 1326.92,1119.44 1325.28,1119.6C1324.02,1119.72 1322.86,1118.92 1322.52,1117.7C1322.18,1116.49 1322.77,1115.2 1323.91,1114.66C1355.81,1099.5 1360.66,1104.32 1386.74,1089.77C1355.84,1087.34 1336.58,1089.1 1312.38,1089.22L1309.78,1089.24L1309.75,1084.04L1312.35,1084.03C1338.78,1083.89 1359.35,1081.84 1395.38,1085.31C1396.5,1085.42 1397.42,1086.23 1397.66,1087.32C1397.91,1088.41 1397.43,1089.54 1396.47,1090.12C1366.89,1107.96 1361.77,1103.91 1335.33,1115.2C1339.07,1115.53 1343.39,1115.9 1347.57,1116.16C1353.89,1116.55 1359.9,1116.73 1362.84,1115.96L1363.52,1115.86L1364.3,1115.94L1364.87,1116.16L1365.48,1116.59L1366.05,1117.35L1366.32,1118.47L1366.22,1119.29L1365.84,1120.15C1365.34,1120.95 1363.36,1123.01 1360.72,1125.47C1358.45,1127.59 1355.69,1130.07 1353.16,1132.32C1364.16,1130.1 1371.68,1129.17 1376.66,1128.93C1381.38,1128.7 1384.07,1129.14 1385.36,1129.63L1386.44,1130.19L1387.16,1130.85L1387.69,1131.74L1387.88,1132.92L1387.7,1133.84L1387.1,1134.83L1386.44,1135.42L1385.48,1135.92C1372.77,1140.82 1323.62,1180.23 1322.25,1181.75L1320.51,1183.68L1316.65,1180.2L1318.39,1178.27C1319.64,1176.88 1359.54,1144.91 1377.76,1134.09Z" style="fill:rgb(132,95,137);"/>
                    </g>
                    <g transform="matrix(1,0,0,1,1.67054,28.5951)">
                        <path d="M1411.51,1240.17C1417.04,1243.29 1495.55,1222.68 1515.6,1223.46C1448.79,1269.24 1448.84,1268.95 1443.06,1272.94C1462.85,1270.44 1462.87,1273.97 1462.49,1275.49C1462.02,1277.32 1461.81,1278.14 1449.65,1295.21C1452.08,1294.7 1452.06,1295.23 1480.29,1290.34C1463.45,1317.35 1460.07,1313.96 1437.01,1335.45C1438.74,1335.94 1439.03,1338.82 1440.75,1339.31C1441.74,1339.59 1441.7,1339.27 1453.62,1338.75C1449.77,1346.56 1443.55,1351.25 1438.32,1358.03" style="fill:rgb(132,95,137);"/>
                        <path d="M1412.62,1237.81C1413.08,1237.8 1417.6,1237.69 1422.13,1236.99C1445.83,1233.32 1499.58,1220.24 1515.7,1220.87C1516.82,1220.91 1517.79,1221.67 1518.1,1222.75C1518.41,1223.82 1517.99,1224.98 1517.07,1225.61C1475.94,1253.79 1460.15,1264.51 1452.74,1269.52C1456.94,1269.4 1459.53,1269.74 1461.11,1270.23C1462.77,1270.75 1463.68,1271.5 1464.23,1272.18L1464.79,1273.08L1465.09,1274.03L1465.17,1275.04C1465.15,1275.44 1465.09,1275.81 1465,1276.14C1464.57,1277.84 1464.44,1278.76 1455.25,1291.81C1459.19,1291.24 1466.25,1290.13 1479.85,1287.78C1480.86,1287.6 1481.87,1288.04 1482.44,1288.88C1483.02,1289.74 1483.04,1290.84 1482.49,1291.71C1465.97,1318.22 1462.3,1315.8 1440.78,1335.5C1441.04,1335.9 1441.48,1336.58 1441.64,1336.83C1441.75,1336.83 1441.87,1336.8 1442.12,1336.79C1443.47,1336.71 1446.33,1336.46 1453.5,1336.15C1454.42,1336.11 1455.29,1336.56 1455.79,1337.33C1456.29,1338.1 1456.35,1339.07 1455.95,1339.89C1452.02,1347.87 1445.72,1352.7 1440.38,1359.62L1438.8,1361.68L1434.68,1358.51L1436.27,1356.45C1440.43,1351.04 1445.28,1347.01 1448.97,1341.57C1444.32,1341.82 1442.63,1341.98 1441.79,1342.01C1440.95,1342.03 1440.58,1341.96 1440.04,1341.81C1438.75,1341.44 1437.77,1340.49 1436.99,1339.27C1436.72,1338.84 1436.22,1338.08 1436.09,1337.88C1435.29,1337.58 1434.69,1336.9 1434.49,1336.06C1434.27,1335.14 1434.56,1334.19 1435.24,1333.55C1456.54,1313.7 1460.89,1315.34 1474.94,1293.89C1452.58,1297.71 1452.42,1297.29 1450.18,1297.76C1449.13,1297.97 1448.06,1297.53 1447.48,1296.63C1446.89,1295.74 1446.91,1294.58 1447.53,1293.7C1458.11,1278.85 1459.36,1276.87 1459.84,1275.33C1459.45,1275.19 1458.82,1274.99 1458.18,1274.89C1455.48,1274.5 1450.94,1274.57 1443.39,1275.52C1442.2,1275.67 1441.06,1274.99 1440.63,1273.87C1440.21,1272.75 1440.6,1271.48 1441.58,1270.8C1447.13,1266.97 1447.3,1267.08 1506.46,1226.58C1484.81,1229.01 1442.99,1239.01 1422.93,1242.12C1418.59,1242.8 1415.22,1243.15 1413.18,1243.08C1411.78,1243.04 1410.79,1242.75 1410.23,1242.43L1407.97,1241.15L1410.52,1236.63L1412.62,1237.81Z" style="fill:rgb(132,95,137);"/>
                    </g>
                    <g transform="matrix(1,0,0,1,36.0827,256.989)">
                        <path d="M1409.45,1240.68C1414.98,1243.8 1470.05,1229.85 1490.1,1230.63C1420.39,1269.26 1440.7,1273.24 1443.06,1272.94C1462.85,1270.44 1462.87,1273.97 1462.49,1275.49C1462.02,1277.32 1461.81,1278.14 1449.65,1295.21C1452.08,1294.7 1452.06,1295.23 1480.29,1290.34C1463.45,1317.35 1460.07,1313.96 1437.01,1335.45C1438.74,1335.94 1439.03,1338.82 1440.75,1339.31C1441.74,1339.59 1441.7,1339.27 1453.62,1338.75C1449.77,1346.56 1397.7,1355.01 1392.47,1361.8" style="fill:rgb(132,95,137);"/>
                        <path d="M1443.17,1341.92C1442.53,1341.97 1442.1,1342 1441.79,1342.01C1440.95,1342.03 1440.58,1341.96 1440.04,1341.81C1438.75,1341.44 1437.77,1340.49 1436.99,1339.27C1436.72,1338.84 1436.22,1338.08 1436.09,1337.88C1435.29,1337.58 1434.69,1336.9 1434.49,1336.06C1434.27,1335.14 1434.56,1334.19 1435.24,1333.55C1456.54,1313.7 1460.89,1315.34 1474.94,1293.89C1452.58,1297.71 1452.42,1297.29 1450.18,1297.76C1449.13,1297.97 1448.06,1297.53 1447.48,1296.63C1446.89,1295.74 1446.91,1294.58 1447.53,1293.7C1458.11,1278.85 1459.36,1276.87 1459.84,1275.33C1459.45,1275.19 1458.82,1274.99 1458.18,1274.89C1455.48,1274.5 1450.94,1274.57 1443.39,1275.52C1442.66,1275.61 1440.8,1275.5 1439.19,1274.68C1437.3,1273.73 1435.73,1272.01 1435.93,1269.12C1436.09,1266.88 1437.69,1263.35 1443,1258.39C1448.97,1252.83 1459.96,1244.91 1479.34,1233.73C1463.68,1235.3 1441.12,1239.96 1425.91,1242.3C1419.91,1243.23 1415.01,1243.79 1412.03,1243.73C1410.2,1243.69 1408.9,1243.35 1408.17,1242.94L1405.91,1241.66L1408.46,1237.14L1410.66,1238.38C1410.8,1238.39 1412.16,1238.56 1413.35,1238.52C1416.19,1238.43 1420.28,1237.91 1425.12,1237.17C1444.62,1234.16 1476.06,1227.48 1490.2,1228.04C1491.37,1228.08 1492.36,1228.9 1492.63,1230.03C1492.9,1231.17 1492.38,1232.34 1491.36,1232.91C1457.28,1251.79 1445.07,1262.02 1441.81,1267.68C1441.28,1268.59 1441,1269.21 1441.13,1269.71C1441.2,1269.98 1441.5,1270.04 1441.72,1270.13C1442.13,1270.29 1442.55,1270.39 1442.74,1270.36C1453.26,1269.03 1458.53,1269.42 1461.11,1270.23C1462.77,1270.75 1463.68,1271.5 1464.23,1272.18L1464.79,1273.08L1465.09,1274.03L1465.17,1275.04C1465.15,1275.44 1465.09,1275.81 1465,1276.14C1464.57,1277.84 1464.44,1278.76 1455.25,1291.81C1459.19,1291.24 1466.25,1290.13 1479.85,1287.78C1480.86,1287.6 1481.87,1288.04 1482.44,1288.88C1483.02,1289.74 1483.04,1290.84 1482.49,1291.71C1465.97,1318.22 1462.3,1315.8 1440.78,1335.5C1441.04,1335.9 1441.48,1336.58 1441.64,1336.83C1441.75,1336.83 1441.87,1336.8 1442.12,1336.79C1443.47,1336.71 1446.33,1336.46 1453.5,1336.15C1454.42,1336.11 1455.29,1336.56 1455.79,1337.33C1456.29,1338.1 1456.35,1339.07 1455.95,1339.89C1455.32,1341.16 1453.87,1342.56 1451.59,1343.85C1447.54,1346.13 1440.52,1348.48 1432.67,1350.78C1421.31,1354.1 1408.16,1357.36 1400.22,1360.41C1397.41,1361.49 1395.3,1362.38 1394.53,1363.38L1392.94,1365.44L1388.83,1362.27L1390.41,1360.21C1391.52,1358.77 1394.33,1357.11 1398.36,1355.56C1406.39,1352.47 1419.7,1349.15 1431.21,1345.79C1435.61,1344.5 1439.74,1343.21 1443.17,1341.92Z" style="fill:rgb(132,95,137);"/>
                    </g>
                </g>
                <g transform="matrix(0.822057,0,0,1,119.422,-4.73361)">
                    <path d="M1282.97,1075.06C1287.69,1074.63 1287.55,1076.38 1341.88,1081.38C1368.88,1083.87 1368.8,1081.89 1395.13,1087.9C1362.52,1107.56 1359.72,1100.52 1325.02,1117.01C1327.82,1116.74 1348.11,1119.93 1356.1,1119.25C1360.35,1118.89 1345.28,1135.71 1344.09,1136.94C1382.66,1128.11 1397.99,1120.05 1397.85,1123.3C1397.72,1126.31 1370.92,1150.84 1365.13,1157.96" style="fill:rgb(132,95,137);"/>
                    <path d="M1335.32,1115.31C1342.3,1116.09 1351.16,1117.06 1355.77,1116.67L1357.13,1116.73L1358.2,1117.09L1359.01,1117.62L1359.57,1118.29L1359.91,1119.05L1360.01,1119.98C1359.99,1120.43 1359.86,1121.01 1359.59,1121.67C1358.6,1124.06 1355.08,1128.59 1351.94,1132.37C1377.34,1126.1 1390.89,1120.68 1395.51,1120.06C1396.38,1119.94 1397.09,1119.95 1397.63,1120.02L1398.72,1120.28L1399.51,1120.67L1400.11,1121.14L1400.58,1121.72L1400.9,1122.44L1401.01,1123.39L1400.84,1124.26C1400.75,1124.52 1400.61,1124.83 1400.4,1125.18C1399.91,1126.04 1398.91,1127.33 1397.51,1128.9C1390.42,1136.93 1372.38,1153.72 1367.76,1159.41L1366.01,1161.57L1360.75,1158.68L1362.51,1156.52C1366.58,1151.51 1381,1137.91 1389.33,1129.17C1390.22,1128.24 1391.07,1127.28 1391.83,1126.4C1391.62,1126.46 1391.41,1126.53 1391.19,1126.59C1383.06,1129.07 1368.2,1134.12 1344.93,1139.44C1343.62,1139.75 1342.21,1139.31 1341.45,1138.38C1340.7,1137.44 1340.76,1136.2 1341.61,1135.32C1342.4,1134.51 1349.4,1126.73 1352.52,1121.93C1347.33,1121.83 1340.26,1121.09 1334.45,1120.45C1330.02,1119.96 1326.42,1119.49 1325.39,1119.59C1323.91,1119.74 1322.5,1119 1322.02,1117.83C1321.55,1116.66 1322.14,1115.38 1323.44,1114.76C1355.96,1099.3 1360.36,1104.63 1387.85,1088.98C1368,1084.77 1365.87,1086.21 1341.52,1083.97C1303.38,1080.45 1292,1078.54 1286.99,1077.86C1285.25,1077.62 1284.46,1077.54 1283.32,1077.65L1280.17,1077.93L1279.48,1072.77L1282.62,1072.48C1284.3,1072.33 1285.47,1072.38 1288.02,1072.73C1293.01,1073.41 1304.31,1075.31 1342.23,1078.8C1369.48,1081.31 1369.4,1079.33 1395.98,1085.39C1397.14,1085.66 1398.02,1086.45 1398.24,1087.43C1398.46,1088.41 1397.98,1089.4 1397,1089.99C1367.21,1107.95 1362.2,1103.75 1335.32,1115.31Z" style="fill:rgb(132,95,137);"/>
                    <g transform="matrix(1,0,0,1,156.108,301.49)">
                        <path d="M1317.25,1087.71C1343.6,1087.57 1359.21,1084.43 1395.13,1087.9C1362.52,1107.56 1359.72,1100.52 1325.02,1117.01C1327.82,1116.74 1355.75,1120.5 1363.5,1118.48C1366.11,1117.8 1345.28,1135.71 1344.09,1136.94C1382.66,1128.11 1385.12,1130.3 1384.54,1133.5C1383.43,1139.62 1322.93,1176.04 1321.54,1177.58" style="fill:rgb(132,95,137);"/>
                        <path d="M1323.94,1179.28L1322.2,1181.21L1317.12,1178.12L1319,1176.03C1319.23,1175.78 1320.76,1174.66 1323.33,1173.01C1332.05,1167.41 1354.08,1153.75 1368.64,1143.46C1373.21,1140.23 1377.04,1137.34 1379.43,1135.16C1380.07,1134.57 1380.72,1133.84 1381.11,1133.39C1380.56,1133.34 1379.83,1133.29 1379.11,1133.31C1373.86,1133.46 1363.82,1135.12 1344.93,1139.44C1343.62,1139.75 1342.21,1139.31 1341.45,1138.38C1340.7,1137.44 1340.76,1136.2 1341.61,1135.32C1342.33,1134.59 1350.97,1126.64 1356.41,1121.65C1353.6,1121.66 1350.42,1121.55 1347.17,1121.35C1337.45,1120.74 1327.03,1119.43 1325.39,1119.59C1323.91,1119.74 1322.5,1119 1322.02,1117.83C1321.55,1116.66 1322.14,1115.38 1323.44,1114.76C1355.41,1099.56 1360.2,1104.46 1386.45,1089.77C1356.43,1087.52 1341.36,1090.18 1317.27,1090.31L1314.11,1090.32L1314.07,1085.13L1317.23,1085.11C1343.71,1084.97 1359.4,1081.84 1395.5,1085.32C1396.79,1085.44 1397.86,1086.2 1398.19,1087.23C1398.52,1088.27 1398.05,1089.36 1397,1089.99C1367.29,1107.91 1362.23,1103.77 1335.52,1115.22C1339.25,1115.55 1343.51,1115.91 1347.65,1116.16C1353.81,1116.55 1359.67,1116.75 1362.54,1116L1363.47,1115.86L1364.59,1115.98L1365.36,1116.26L1366.08,1116.77L1366.65,1117.53L1366.88,1118.49L1366.8,1119.17L1366.44,1119.96C1365.54,1121.44 1359.05,1127.34 1353.72,1132.12C1370.35,1128.61 1378.36,1127.8 1382.08,1128.21C1384.8,1128.51 1386.14,1129.42 1386.88,1130.33L1387.4,1131.14L1387.67,1131.94C1387.81,1132.54 1387.79,1133.2 1387.67,1133.88C1387.55,1134.52 1387.16,1135.38 1386.35,1136.37C1385.17,1137.8 1382.9,1139.81 1379.87,1142.17C1366.93,1152.23 1339.31,1169.38 1328.2,1176.48C1326.12,1177.81 1324.3,1179.04 1323.94,1179.28Z" style="fill:rgb(132,95,137);"/>
                    </g>
                    <g transform="matrix(1,0,0,1,137.012,548.659)">
                        <path d="M1317.25,1087.71C1343.6,1087.57 1359.21,1084.43 1395.13,1087.9C1362.52,1107.56 1359.72,1100.52 1325.02,1117.01C1327.82,1116.74 1355.75,1120.5 1363.5,1118.48C1366.11,1117.8 1345.28,1135.71 1344.09,1136.94C1385.11,1127.91 1390.03,1127.37 1387.49,1130.9C1385.24,1134.03 1269.58,1200.11 1268.19,1201.65" style="fill:rgb(132,95,137);"/>
                        <path d="M1380.8,1132.05C1374.42,1133.06 1363.33,1135.39 1344.9,1139.45C1343.59,1139.74 1342.19,1139.3 1341.44,1138.36C1340.7,1137.43 1340.76,1136.2 1341.61,1135.32C1342.33,1134.59 1350.97,1126.64 1356.41,1121.65C1353.6,1121.66 1350.42,1121.55 1347.17,1121.35C1337.45,1120.74 1327.03,1119.43 1325.39,1119.59C1323.91,1119.74 1322.5,1119 1322.02,1117.83C1321.55,1116.66 1322.14,1115.38 1323.44,1114.76C1355.41,1099.56 1360.2,1104.46 1386.45,1089.77C1356.43,1087.52 1341.36,1090.18 1317.27,1090.31L1314.11,1090.32L1314.07,1085.13L1317.23,1085.11C1343.71,1084.97 1359.4,1081.84 1395.5,1085.32C1396.79,1085.44 1397.86,1086.2 1398.19,1087.23C1398.52,1088.27 1398.05,1089.36 1397,1089.99C1367.29,1107.91 1362.23,1103.77 1335.52,1115.22C1339.25,1115.55 1343.51,1115.91 1347.65,1116.16C1353.81,1116.55 1359.67,1116.75 1362.54,1116L1363.47,1115.86L1364.59,1115.98L1365.36,1116.26L1366.08,1116.77L1366.65,1117.53L1366.88,1118.49L1366.8,1119.17L1366.44,1119.96C1365.54,1121.44 1359.03,1127.37 1353.69,1132.15C1367.62,1129.13 1376.19,1127.41 1381.22,1126.7C1384.41,1126.25 1386.42,1126.21 1387.57,1126.39L1388.76,1126.68L1389.62,1127.09L1390.31,1127.63L1390.84,1128.34L1391.16,1129.24L1391.12,1130.39C1391,1130.9 1390.71,1131.53 1390.21,1132.23C1390.04,1132.46 1389.6,1132.93 1388.78,1133.52C1387,1134.82 1382.49,1137.63 1376.22,1141.41C1351.57,1156.27 1299.11,1186.47 1278.54,1198.59C1274.51,1200.96 1271.17,1203.02 1270.53,1203.42L1268.85,1205.28L1263.77,1202.19L1265.65,1200.1C1265.8,1199.94 1266.82,1199.17 1268.73,1198.01C1281.84,1190.06 1344.75,1153.93 1372.48,1137.22C1375.63,1135.32 1378.57,1133.48 1380.8,1132.05Z" style="fill:rgb(132,95,137);"/>
                    </g>
                    <g transform="matrix(0.926337,-0.376697,0.376697,0.926337,-246.576,659.147)">
                        <path d="M1309.91,1085.46C1336.26,1085.32 1359.46,1082.3 1395.38,1085.76C1362.77,1105.42 1355.06,1093.14 1325.02,1117.01C1327.82,1116.74 1355.75,1120.5 1363.5,1118.48C1366.11,1117.8 1345.28,1135.71 1344.09,1136.94C1382.66,1128.11 1387.57,1132.33 1384.54,1133.5C1371.63,1138.47 1326.52,1178.08 1325.13,1179.62" style="fill:rgb(132,95,137);"/>
                        <path d="M1376.98,1134.23C1370.82,1134.56 1360.83,1135.98 1345.24,1139.54C1343.96,1139.84 1342.49,1139.32 1341.64,1138.27C1340.8,1137.23 1340.79,1135.91 1341.62,1135.05C1342.31,1134.33 1350.54,1126.76 1356,1121.74C1353.41,1121.73 1350.54,1121.62 1347.61,1121.43C1337.87,1120.83 1327.41,1119.52 1325.77,1119.68C1324.44,1119.81 1323.05,1119.14 1322.36,1118.04C1321.67,1116.94 1321.84,1115.67 1322.78,1114.92C1338.25,1102.62 1347.99,1099.66 1358.05,1097.21C1366.02,1095.28 1374.21,1093.71 1385.98,1087.64C1355.45,1085.51 1334.19,1088.02 1310.35,1088.14L1307.29,1088.16L1306.41,1082.79L1309.47,1082.77C1335.93,1082.63 1359.23,1079.62 1395.3,1083.09C1396.62,1083.22 1397.81,1084.05 1398.27,1085.16C1398.73,1086.28 1398.37,1087.43 1397.36,1088.04C1380.7,1098.08 1370.41,1099.98 1360.43,1102.4C1352.23,1104.4 1344.27,1106.79 1332.81,1114.93C1337,1115.3 1342.19,1115.77 1347.21,1116.08C1353.43,1116.46 1359.36,1116.65 1362.26,1115.89L1363.28,1115.77L1364.13,1115.89L1364.96,1116.2L1365.83,1116.81L1366.45,1117.59L1366.74,1118.3L1366.77,1119.36L1366.39,1120.3C1365.52,1121.71 1359.46,1127.25 1354.26,1131.91C1364.41,1129.92 1371.45,1129.07 1376.19,1128.85C1381.15,1128.61 1383.98,1129.1 1385.33,1129.62L1386.67,1130.31L1387.58,1131.14L1388.18,1132.15L1388.37,1133.28L1388.21,1134.07L1387.7,1134.92L1387.08,1135.47L1386.1,1135.98C1373.39,1140.88 1329.02,1179.94 1327.65,1181.45L1325.88,1183.42L1320.83,1179.76L1322.6,1177.8C1323.84,1176.42 1359.5,1145.16 1376.98,1134.23Z" style="fill:rgb(132,95,137);"/>
                    </g>
                    <g transform="matrix(1,0,0,1,31.873,22.3862)">
                        <path d="M1401.07,1244.7C1406.6,1247.82 1476.04,1225.75 1496.09,1226.53C1429.27,1272.31 1448.84,1268.95 1443.06,1272.94C1462.85,1270.44 1462.87,1273.97 1462.49,1275.49C1462.02,1277.32 1461.81,1278.14 1449.65,1295.21C1452.08,1294.7 1452.06,1295.23 1480.29,1290.34C1463.45,1317.35 1460.07,1313.96 1437.01,1335.45C1438.74,1335.94 1439.03,1338.82 1440.75,1339.31C1441.74,1339.59 1441.7,1339.27 1453.62,1338.75C1449.77,1346.56 1443.55,1351.25 1438.32,1358.03" style="fill:rgb(132,95,137);"/>
                        <path d="M1402.54,1242.38C1402.92,1242.38 1404.14,1242.36 1405.18,1242.24C1408.55,1241.85 1413.5,1240.84 1419.4,1239.5C1443.27,1234.06 1482.03,1223.38 1496.24,1223.94C1497.54,1223.99 1498.67,1224.69 1499.09,1225.71C1499.5,1226.72 1499.12,1227.84 1498.12,1228.53C1471.64,1246.67 1458.84,1257 1452.66,1263.15C1449,1266.79 1447.97,1268.65 1447.67,1269.82C1455.16,1269.17 1459.26,1269.59 1461.46,1270.28C1463.26,1270.85 1464.25,1271.63 1464.84,1272.37L1465.38,1273.25L1465.66,1274.11C1465.8,1274.82 1465.72,1275.49 1465.58,1276.03C1465.14,1277.73 1465.01,1278.63 1455.79,1291.72C1459.86,1291.12 1466.87,1290.01 1479.64,1287.79C1480.83,1287.59 1482.06,1287.96 1482.8,1288.76C1483.54,1289.56 1483.66,1290.63 1483.1,1291.52C1466.54,1318.1 1462.89,1315.6 1441.24,1335.45C1441.54,1335.89 1441.88,1336.43 1442.09,1336.77C1443.28,1336.67 1446.52,1336.45 1453.45,1336.15C1454.53,1336.11 1455.56,1336.52 1456.19,1337.24C1456.82,1337.96 1456.95,1338.9 1456.55,1339.72C1452.62,1347.69 1446.33,1352.51 1440.99,1359.42L1439.3,1361.62L1433.96,1358.84L1435.65,1356.64C1439.86,1351.18 1444.76,1347.12 1448.46,1341.6C1444.23,1341.83 1442.63,1341.98 1441.83,1342.01C1441.36,1342.02 1441.03,1342 1440.74,1341.97L1439.71,1341.76L1438.84,1341.43L1438.14,1341.01C1437.65,1340.67 1437.21,1340.23 1436.82,1339.72C1436.41,1339.17 1435.72,1338.06 1435.52,1337.74C1434.75,1337.4 1434.18,1336.81 1433.96,1336.11C1433.69,1335.27 1433.95,1334.38 1434.64,1333.73C1455.96,1313.87 1460.3,1315.53 1474.38,1294.01C1452.82,1297.67 1452.64,1297.27 1450.43,1297.73C1449.19,1297.99 1447.89,1297.61 1447.12,1296.77C1446.36,1295.94 1446.28,1294.8 1446.92,1293.9C1458.08,1278.24 1458.89,1276.82 1459.33,1275.2C1459.02,1275.1 1458.51,1274.95 1458,1274.88C1455.36,1274.49 1450.93,1274.58 1443.54,1275.51C1442.14,1275.69 1440.77,1275.07 1440.18,1274.01C1439.6,1272.95 1439.94,1271.7 1441.03,1270.95C1441.09,1270.91 1441.16,1270.85 1441.22,1270.81C1441.22,1270.71 1441.23,1270.61 1441.23,1270.53C1441.23,1270.23 1441.24,1269.9 1441.29,1269.52C1441.5,1267.99 1442.29,1265.51 1446.86,1260.78C1452.22,1255.22 1463.32,1245.95 1486.39,1229.85C1480.65,1230.66 1473.67,1232.07 1466.21,1233.74C1446.94,1238.03 1424.64,1244.04 1411.86,1246.46C1407.8,1247.23 1404.61,1247.64 1402.65,1247.6C1401.89,1247.58 1401.25,1247.5 1400.74,1247.38L1399.28,1246.84L1396.68,1245.37L1400.26,1241.08L1402.54,1242.38Z" style="fill:rgb(132,95,137);"/>
                    </g>
                    <g transform="matrix(1,0,0,1,71.9467,255.727)">
                        <path d="M1409.45,1240.68C1414.98,1243.8 1470.05,1229.85 1490.1,1230.63C1420.39,1269.26 1440.7,1273.24 1443.06,1272.94C1462.85,1270.44 1462.87,1273.97 1462.49,1275.49C1462.02,1277.32 1461.81,1278.14 1449.65,1295.21C1452.08,1294.7 1452.06,1295.23 1480.29,1290.34C1463.45,1317.35 1460.07,1313.96 1437.01,1335.45C1438.74,1335.94 1439.03,1338.82 1440.75,1339.31C1441.74,1339.59 1441.7,1339.27 1453.62,1338.75C1449.77,1346.56 1397.7,1355.01 1392.47,1361.8" style="fill:rgb(132,95,137);"/>
                        <path d="M1442.9,1341.94C1442.42,1341.98 1442.08,1342 1441.83,1342.01C1441.36,1342.02 1441.03,1342 1440.74,1341.97L1439.71,1341.76L1438.84,1341.43L1438.14,1341.01C1437.65,1340.67 1437.21,1340.23 1436.82,1339.72C1436.41,1339.17 1435.72,1338.06 1435.52,1337.74C1434.75,1337.4 1434.18,1336.81 1433.96,1336.11C1433.69,1335.27 1433.95,1334.38 1434.64,1333.73C1455.96,1313.87 1460.3,1315.53 1474.38,1294.01C1452.82,1297.67 1452.64,1297.27 1450.43,1297.73C1449.19,1297.99 1447.89,1297.61 1447.12,1296.77C1446.36,1295.94 1446.28,1294.8 1446.92,1293.9C1458.08,1278.24 1458.89,1276.82 1459.33,1275.2C1459.02,1275.1 1458.51,1274.95 1458,1274.88C1455.36,1274.49 1450.93,1274.58 1443.54,1275.51C1441.87,1275.72 1434.98,1274.82 1435.37,1269.15C1435.52,1266.92 1437.13,1263.49 1442.4,1258.58C1448.4,1252.98 1459.46,1245.02 1478.98,1233.76C1460.51,1235.65 1432.63,1241.76 1418.46,1243.33C1415.02,1243.71 1412.3,1243.82 1410.56,1243.64C1409.26,1243.5 1408.3,1243.18 1407.66,1242.82L1405.06,1241.35L1408.63,1237.07L1411.06,1238.43C1411.32,1238.46 1412.41,1238.55 1413.31,1238.52C1416.12,1238.43 1420.15,1237.92 1424.94,1237.18C1444.5,1234.17 1476.06,1227.48 1490.25,1228.04C1491.61,1228.09 1492.78,1228.85 1493.14,1229.93C1493.51,1231.01 1493,1232.16 1491.87,1232.79C1457.87,1251.62 1445.67,1261.85 1442.41,1267.5C1441.76,1268.63 1441.47,1269.38 1441.74,1269.92C1441.91,1270.26 1442.55,1270.34 1442.74,1270.35C1453.44,1269.01 1458.82,1269.45 1461.46,1270.28C1463.26,1270.85 1464.25,1271.63 1464.84,1272.37L1465.38,1273.25L1465.66,1274.11C1465.8,1274.82 1465.72,1275.49 1465.58,1276.03C1465.14,1277.73 1465.01,1278.63 1455.79,1291.72C1459.86,1291.12 1466.87,1290.01 1479.64,1287.79C1480.83,1287.59 1482.06,1287.96 1482.8,1288.76C1483.54,1289.56 1483.66,1290.63 1483.1,1291.52C1466.54,1318.1 1462.89,1315.6 1441.24,1335.45C1441.54,1335.89 1441.88,1336.43 1442.09,1336.77C1443.28,1336.67 1446.52,1336.45 1453.45,1336.15C1454.53,1336.11 1455.56,1336.52 1456.19,1337.24C1456.82,1337.96 1456.95,1338.9 1456.55,1339.72C1455.91,1341.02 1454.43,1342.41 1452.1,1343.73C1448.01,1346.04 1440.93,1348.41 1433,1350.73C1421.66,1354.04 1408.55,1357.29 1400.63,1360.34C1397.94,1361.37 1395.88,1362.23 1395.14,1363.19L1393.45,1365.38L1388.11,1362.6L1389.8,1360.4C1390.94,1358.92 1393.8,1357.23 1397.95,1355.63C1406.01,1352.53 1419.35,1349.2 1430.88,1345.83C1435.31,1344.54 1439.46,1343.24 1442.9,1341.94Z" style="fill:rgb(132,95,137);"/>
                    </g>
                </g>
            </g>
            <g transform="matrix(1,0,0,0.905298,-48.4556,138.953)">
                <ellipse cx="982.734" cy="1480.07" rx="279.649" ry="431.31" style="fill:none;stroke:white;stroke-width:15px;"/>
                <ellipse cx="982.734" cy="1480.07" rx="279.649" ry="431.31" style="fill:rgb(243,231,248);"/>
            </g>
            <g transform="matrix(1,0,0,1,23.2233,2.44456)">
                <g opacity="0.5">
                    <g transform="matrix(0.258169,-0.241993,0.261563,0.279047,344.698,1037.73)">
                        <ellipse cx="951.481" cy="1294.58" rx="40.054" ry="37.057" style="fill:rgb(230,188,235);"/>
                    </g>
                    <g transform="matrix(0.258169,-0.241993,0.261563,0.279047,422.186,1084.67)">
                        <ellipse cx="951.481" cy="1294.58" rx="40.054" ry="37.057" style="fill:rgb(230,188,235);"/>
                    </g>
                    <g transform="matrix(0.258169,-0.241993,0.261563,0.279047,283.943,1115.72)">
                        <ellipse cx="951.481" cy="1294.58" rx="40.054" ry="37.057" style="fill:rgb(230,188,235);"/>
                    </g>
                    <g transform="matrix(0.258169,-0.241993,0.261563,0.279047,248.714,1043.49)">
                        <ellipse cx="951.481" cy="1294.58" rx="40.054" ry="37.057" style="fill:rgb(230,188,235);"/>
                    </g>
                    <g transform="matrix(0.258169,-0.241993,0.261563,0.279047,354.576,1140.01)">
                        <ellipse cx="951.481" cy="1294.58" rx="40.054" ry="37.057" style="fill:rgb(230,188,235);"/>
                    </g>
                    <g transform="matrix(0.258169,-0.241993,0.261563,0.279047,401.621,1240.52)">
                        <ellipse cx="951.481" cy="1294.58" rx="40.054" ry="37.057" style="fill:rgb(230,188,235);"/>
                    </g>
                    <g transform="matrix(0.258169,-0.241993,0.261563,0.279047,310.373,1282.15)">
                        <ellipse cx="951.481" cy="1294.58" rx="40.054" ry="37.057" style="fill:rgb(230,188,235);"/>
                    </g>
                    <g transform="matrix(0.258169,-0.241993,0.261563,0.279047,487.978,1245.18)">
                        <ellipse cx="951.481" cy="1294.58" rx="40.054" ry="37.057" style="fill:rgb(230,188,235);"/>
                    </g>
                    <g transform="matrix(0.258169,-0.241993,0.261563,0.279047,421.986,1310.22)">
                        <ellipse cx="951.481" cy="1294.58" rx="40.054" ry="37.057" style="fill:rgb(230,188,235);"/>
                    </g>
                    <g transform="matrix(0.258169,-0.241993,0.261563,0.279047,229.265,1176.48)">
                        <ellipse cx="951.481" cy="1294.58" rx="40.054" ry="37.057" style="fill:rgb(230,188,235);"/>
                    </g>
                    <g transform="matrix(0.258169,-0.241993,0.261563,0.279047,197.436,1103.87)">
                        <ellipse cx="951.481" cy="1294.58" rx="40.054" ry="37.057" style="fill:rgb(230,188,235);"/>
                    </g>
                    <g transform="matrix(0.258169,-0.241993,0.261563,0.279047,440.485,1163.47)">
                        <ellipse cx="951.481" cy="1294.58" rx="40.054" ry="37.057" style="fill:rgb(230,188,235);"/>
                    </g>
                    <g transform="matrix(0.258169,-0.241993,0.261563,0.279047,294.783,1211.55)">
                        <ellipse cx="951.481" cy="1294.58" rx="40.054" ry="37.057" style="fill:rgb(230,188,235);"/>
                    </g>
                    <g transform="matrix(0.258169,-0.241993,0.261563,0.279047,153.033,1204.84)">
                        <ellipse cx="951.481" cy="1294.58" rx="40.054" ry="37.057" style="fill:rgb(230,188,235);"/>
                    </g>
                    <g transform="matrix(0.258169,-0.241993,0.261563,0.279047,212.312,1250.02)">
                        <ellipse cx="951.481" cy="1294.58" rx="40.054" ry="37.057" style="fill:rgb(230,188,235);"/>
                    </g>
                </g>
            </g>
            <g transform="matrix(-0.99998,-0.00630406,0.00630406,-0.99998,1824,2928.43)">
                <g opacity="0.5">
                    <g transform="matrix(0.258169,-0.241993,0.261563,0.279047,379.272,1053.13)">
                        <ellipse cx="951.481" cy="1294.58" rx="40.054" ry="37.057" style="fill:rgb(230,188,235);"/>
                    </g>
                    <g transform="matrix(0.258169,-0.241993,0.261563,0.279047,325.937,1001.6)">
                        <ellipse cx="951.481" cy="1294.58" rx="40.054" ry="37.057" style="fill:rgb(230,188,235);"/>
                    </g>
                    <g transform="matrix(0.258169,-0.241993,0.261563,0.279047,449.269,1079.82)">
                        <ellipse cx="951.481" cy="1294.58" rx="40.054" ry="37.057" style="fill:rgb(230,188,235);"/>
                    </g>
                    <g transform="matrix(0.258169,-0.241993,0.261563,0.279047,298.18,1101.06)">
                        <ellipse cx="951.481" cy="1294.58" rx="40.054" ry="37.057" style="fill:rgb(230,188,235);"/>
                    </g>
                    <g transform="matrix(0.258169,-0.241993,0.261563,0.279047,248.714,1043.49)">
                        <ellipse cx="951.481" cy="1294.58" rx="40.054" ry="37.057" style="fill:rgb(230,188,235);"/>
                    </g>
                    <g transform="matrix(0.258169,-0.241993,0.261563,0.279047,363.444,1144.81)">
                        <ellipse cx="951.481" cy="1294.58" rx="40.054" ry="37.057" style="fill:rgb(230,188,235);"/>
                    </g>
                    <g transform="matrix(0.258169,-0.241993,0.261563,0.279047,401.621,1240.52)">
                        <ellipse cx="951.481" cy="1294.58" rx="40.054" ry="37.057" style="fill:rgb(230,188,235);"/>
                    </g>
                    <g transform="matrix(0.258169,-0.241993,0.261563,0.279047,310.373,1282.15)">
                        <ellipse cx="951.481" cy="1294.58" rx="40.054" ry="37.057" style="fill:rgb(230,188,235);"/>
                    </g>
                    <g transform="matrix(0.258169,-0.241993,0.261563,0.279047,487.978,1245.18)">
                        <ellipse cx="951.481" cy="1294.58" rx="40.054" ry="37.057" style="fill:rgb(230,188,235);"/>
                    </g>
                    <g transform="matrix(0.258169,-0.241993,0.261563,0.279047,497.125,1339.42)">
                        <ellipse cx="951.481" cy="1294.58" rx="40.054" ry="37.057" style="fill:rgb(230,188,235);"/>
                    </g>
                    <g transform="matrix(0.258169,-0.241993,0.261563,0.279047,417.022,1320.81)">
                        <ellipse cx="951.481" cy="1294.58" rx="40.054" ry="37.057" style="fill:rgb(230,188,235);"/>
                    </g>
                    <g transform="matrix(0.258169,-0.241993,0.261563,0.279047,229.265,1176.48)">
                        <ellipse cx="951.481" cy="1294.58" rx="40.054" ry="37.057" style="fill:rgb(230,188,235);"/>
                    </g>
                    <g transform="matrix(0.258169,-0.241993,0.261563,0.279047,197.436,1103.87)">
                        <ellipse cx="951.481" cy="1294.58" rx="40.054" ry="37.057" style="fill:rgb(230,188,235);"/>
                    </g>
                    <g transform="matrix(0.258169,-0.241993,0.261563,0.279047,440.485,1163.47)">
                        <ellipse cx="951.481" cy="1294.58" rx="40.054" ry="37.057" style="fill:rgb(230,188,235);"/>
                    </g>
                    <g transform="matrix(0.258169,-0.241993,0.261563,0.279047,294.783,1211.55)">
                        <ellipse cx="951.481" cy="1294.58" rx="40.054" ry="37.057" style="fill:rgb(230,188,235);"/>
                    </g>
                    <g transform="matrix(0.258169,-0.241993,0.261563,0.279047,153.033,1204.84)">
                        <ellipse cx="951.481" cy="1294.58" rx="40.054" ry="37.057" style="fill:rgb(230,188,235);"/>
                    </g>
                    <g transform="matrix(0.258169,-0.241993,0.261563,0.279047,132.021,1303.06)">
                        <ellipse cx="951.481" cy="1294.58" rx="40.054" ry="37.057" style="fill:rgb(230,188,235);"/>
                    </g>
                    <g transform="matrix(0.258169,-0.241993,0.261563,0.279047,212.312,1250.02)">
                        <ellipse cx="951.481" cy="1294.58" rx="40.054" ry="37.057" style="fill:rgb(230,188,235);"/>
                    </g>
                </g>
            </g>
        </g>
    </g>
</svg>
